Sprint_05400001_forces_filt100Hz.mot
version=1
nRows=57
nColumns=19
inDegrees=yes
endheader
time	R_ground_force_vx	R_ground_force_vy	R_ground_force_vz	R_ground_force_px	R_ground_force_py	R_ground_force_pz	R_ground_torque_x	R_ground_torque_y	R_ground_torque_z	L_ground_force_vx	L_ground_force_vy	L_ground_force_vz	L_ground_force_px	L_ground_force_py	L_ground_force_pz	L_ground_torque_x	L_ground_torque_y	L_ground_torque_z	
0.904500	-82.017603	2791.820298	 -5.509872	  0.791948	  0.000000	 -0.348351	  0.000000	 -1.247916	  0.000000	  0.000000	  0.000000	  0.000000	  0.786104	  0.000000	 -0.339675	  0.000000	  0.000000	  0.000000
0.905000	-76.346230	2801.645179	-18.272689	  0.793899	  0.000000	 -0.348064	  0.000000	 -1.551678	  0.000000	  0.000000	  0.000000	  0.000000	  0.783399	  0.000000	 -0.339664	  0.000000	  0.000000	  0.000000
0.905500	-70.696145	2811.070668	-30.220986	  0.795451	  0.000000	 -0.347954	  0.000000	 -1.902834	  0.000000	  0.000000	  0.000000	  0.000000	  0.780695	  0.000000	 -0.339669	  0.000000	  0.000000	  0.000000
0.906000	-65.200094	2819.374894	-40.885270	  0.796422	  0.000000	 -0.347994	  0.000000	 -2.287739	  0.000000	  0.000000	  0.000000	  0.000000	  0.777990	  0.000000	 -0.339674	  0.000000	  0.000000	  0.000000
0.906500	-59.999356	2825.916851	-49.765571	  0.796660	  0.000000	 -0.348138	  0.000000	 -2.705679	  0.000000	  0.000000	  0.000000	  0.000000	  0.775285	  0.000000	 -0.339679	  0.000000	  0.000000	  0.000000
0.907000	-55.238737	2830.190021	-56.407780	  0.796054	  0.000000	 -0.348327	  0.000000	 -3.149517	  0.000000	  0.000000	  0.000000	  0.000000	  0.772581	  0.000000	 -0.339685	  0.000000	  0.000000	  0.000000
0.907500	-51.049327	2831.858422	-60.474098	  0.794545	  0.000000	 -0.348503	  0.000000	 -3.583525	  0.000000	  0.000000	  0.000000	  0.000000	  0.769876	  0.000000	 -0.339690	  0.000000	  0.000000	  0.000000
0.908000	-47.520841	2830.777382	-61.799624	  0.792131	  0.000000	 -0.348615	  0.000000	 -3.926036	  0.000000	  0.000000	  0.000000	  0.000000	  0.767171	  0.000000	 -0.339695	  0.000000	  0.000000	  0.000000
0.908500	-44.673704	2827.001278	-60.430912	  0.788877	  0.000000	 -0.348629	  0.000000	 -4.043539	  0.000000	  0.000000	  0.000000	  0.000000	  0.764467	  0.000000	 -0.339700	  0.000000	  0.000000	  0.000000
0.909000	-42.439755	2820.777446	-56.638933	  0.784911	  0.000000	 -0.348526	  0.000000	 -3.758054	  0.000000	  0.000000	  0.000000	  0.000000	  0.761762	  0.000000	 -0.339706	  0.000000	  0.000000	  0.000000
0.909500	-40.659667	2812.523722	-50.895013	  0.780416	  0.000000	 -0.348304	  0.000000	 -2.865865	  0.000000	  0.000000	  0.000000	  0.000000	  0.759057	  0.000000	 -0.339711	  0.000000	  0.000000	  0.000000
0.910000	-39.098406	2802.789934	-43.809320	  0.775618	  0.000000	 -0.347981	  0.000000	 -1.165271	  0.000000	  0.000000	  0.000000	  0.000000	  0.756353	  0.000000	 -0.339716	  0.000000	  0.000000	  0.000000
0.910500	-37.473442	2792.205665	-36.042651	  0.770758	  0.000000	 -0.347581	  0.000000	  1.511136	  0.000000	  0.000000	  0.000000	  0.000000	  0.753635	  0.000000	 -0.339734	  0.000000	  0.000000	  0.000000
0.911000	-35.488148	2781.416213	-28.209786	  0.766074	  0.000000	 -0.347136	  0.000000	  5.263736	  0.000000	  0.000000	  0.000000	  0.000000	  0.750918	  0.000000	 -0.339751	  0.000000	  0.000000	  0.000000
0.911500	-32.860098	2771.009374	-20.800960	  0.761775	  0.000000	 -0.346680	  0.000000	 10.098115	  0.000000	  0.000000	  0.000000	  0.000000	  0.748201	  0.000000	 -0.339769	  0.000000	  0.000000	  0.000000
0.912000	-29.338343	2761.441696	-14.134613	  0.758023	  0.000000	 -0.346247	  0.000000	 15.908436	  0.000000	  0.000000	  0.000000	  0.000000	  0.745483	  0.000000	 -0.339786	  0.000000	  0.000000	  0.000000
0.912500	-24.707700	2752.978922	 -8.342342	  0.754921	  0.000000	 -0.345871	  0.000000	 22.477409	  0.000000	  0.000000	  0.000000	  0.000000	  0.742766	  0.000000	 -0.339804	  0.000000	  0.000000	  0.000000
0.913000	-18.783867	2745.665401	 -3.381769	  0.752506	  0.000000	 -0.345587	  0.000000	 29.494734	  0.000000	  0.000000	  0.000000	  0.000000	  0.740049	  0.000000	 -0.339821	  0.000000	  0.000000	  0.000000
0.913500	-11.408977	2739.339069	  0.932450	  0.750750	  0.000000	 -0.345423	  0.000000	 36.591753	  0.000000	  0.000000	  0.000000	  0.000000	  0.737332	  0.000000	 -0.339839	  0.000000	  0.000000	  0.000000
0.914000	 -2.455151	2733.690213	  4.885460	  0.749566	  0.000000	 -0.345398	  0.000000	 43.385838	  0.000000	  0.000000	  0.000000	  0.000000	  0.734614	  0.000000	 -0.339856	  0.000000	  0.000000	  0.000000
0.914500	  8.158766	2728.342419	  8.809156	  0.748822	  0.000000	 -0.345515	  0.000000	 49.523581	  0.000000	  0.000000	  0.000000	  0.000000	  0.731897	  0.000000	 -0.339874	  0.000000	  0.000000	  0.000000
0.915000	 20.439737	2722.930794	 13.026052	  0.748353	  0.000000	 -0.345759	  0.000000	 54.715134	  0.000000	  0.000000	  0.000000	  0.000000	  0.729180	  0.000000	 -0.339892	  0.000000	  0.000000	  0.000000
0.915500	 34.292249	2717.149932	 17.801558	  0.747987	  0.000000	 -0.346105	  0.000000	 58.755180	  0.000000	  0.000000	  0.000000	  0.000000	  0.726443	  0.000000	 -0.339918	  0.000000	  0.000000	  0.000000
0.916000	 49.498903	2710.765664	 23.313839	  0.747553	  0.000000	 -0.346516	  0.000000	 61.529083	  0.000000	  0.000000	  0.000000	  0.000000	  0.723707	  0.000000	 -0.339944	  0.000000	  0.000000	  0.000000
0.916500	 65.719967	2703.604452	 29.649199	  0.746900	  0.000000	 -0.346956	  0.000000	 63.006351	  0.000000	  0.000000	  0.000000	  0.000000	  0.720970	  0.000000	 -0.339970	  0.000000	  0.000000	  0.000000
0.917000	 82.514134	2695.536646	 36.822042	  0.745902	  0.000000	 -0.347383	  0.000000	 63.224134	  0.000000	  0.000000	  0.000000	  0.000000	  0.718234	  0.000000	 -0.339996	  0.000000	  0.000000	  0.000000
0.917500	 99.375341	2686.472811	 44.809311	  0.744464	  0.000000	 -0.347758	  0.000000	 62.262838	  0.000000	  0.000000	  0.000000	  0.000000	  0.715497	  0.000000	 -0.340022	  0.000000	  0.000000	  0.000000
0.918000	115.779703	2676.376837	 53.585428	  0.742528	  0.000000	 -0.348033	  0.000000	 60.217957	  0.000000	  0.000000	  0.000000	  0.000000	  0.712761	  0.000000	 -0.340048	  0.000000	  0.000000	  0.000000
0.918500	131.234443	2665.284013	 63.139887	  0.740081	  0.000000	 -0.348156	  0.000000	 57.175557	  0.000000	  0.000000	  0.000000	  0.000000	  0.710025	  0.000000	 -0.340074	  0.000000	  0.000000	  0.000000
0.919000	145.321721	2653.313672	 73.470084	  0.737153	  0.000000	 -0.348076	  0.000000	 53.197591	  0.000000	  0.000000	  0.000000	  0.000000	  0.707288	  0.000000	 -0.340100	  0.000000	  0.000000	  0.000000
0.919500	157.731441	2640.667550	 84.551355	  0.733816	  0.000000	 -0.347748	  0.000000	 48.320998	  0.000000	  0.000000	  0.000000	  0.000000	  0.704552	  0.000000	 -0.340126	  0.000000	  0.000000	  0.000000
0.920000	168.279489	2627.612094	 96.294381	  0.730174	  0.000000	 -0.347150	  0.000000	 42.570220	  0.000000	  0.000000	  0.000000	  0.000000	  0.701815	  0.000000	 -0.340152	  0.000000	  0.000000	  0.000000
0.920500	176.910078	2614.449390	108.509367	  0.726347	  0.000000	 -0.346288	  0.000000	 35.978765	  0.000000	  0.000000	  0.000000	  0.000000	  0.699144	  0.000000	 -0.340106	  0.000000	  0.000000	  0.000000
0.921000	183.684653	2601.480903	120.889114	  0.722454	  0.000000	 -0.345201	  0.000000	 28.612807	  0.000000	  0.000000	  0.000000	  0.000000	  0.696472	  0.000000	 -0.340060	  0.000000	  0.000000	  0.000000
0.921500	188.762389	2588.968941	133.015764	  0.718591	  0.000000	 -0.343960	  0.000000	 20.587395	  0.000000	  0.000000	  0.000000	  0.000000	  0.693801	  0.000000	 -0.340014	  0.000000	  0.000000	  0.000000
0.922000	192.377094	2577.100383	144.389999	  0.714819	  0.000000	 -0.342659	  0.000000	 12.068885	  0.000000	  0.000000	  0.000000	  0.000000	  0.691129	  0.000000	 -0.339968	  0.000000	  0.000000	  0.000000
0.922500	194.816749	2565.956575	154.475723	  0.711160	  0.000000	 -0.341408	  0.000000	  3.261253	  0.000000	  0.000000	  0.000000	  0.000000	  0.688458	  0.000000	 -0.339922	  0.000000	  0.000000	  0.000000
0.923000	196.406367	2555.495880	162.755184	  0.707591	  0.000000	 -0.340315	  0.000000	 -5.620008	  0.000000	  0.000000	  0.000000	  0.000000	  0.685786	  0.000000	 -0.339876	  0.000000	  0.000000	  0.000000
0.923500	197.488719	2545.558161	168.790877	  0.704063	  0.000000	 -0.339478	  0.000000	-14.377957	  0.000000	  0.000000	  0.000000	  0.000000	  0.683115	  0.000000	 -0.339830	  0.000000	  0.000000	  0.000000
0.924000	198.399705	2535.889952	172.286508	  0.700508	  0.000000	 -0.338965	  0.000000	-22.860032	  0.000000	  0.000000	  0.000000	  0.000000	  0.680443	  0.000000	 -0.339784	  0.000000	  0.000000	  0.000000
0.924500	199.437587	2526.179418	173.134553	  0.696863	  0.000000	 -0.338810	  0.000000	-30.971873	  0.000000	  0.000000	  0.000000	  0.000000	  0.677772	  0.000000	 -0.339739	  0.000000	  0.000000	  0.000000
0.925000	200.831788	2516.091970	171.440118	  0.693082	  0.000000	 -0.339002	  0.000000	-38.678308	  0.000000	  0.000000	  0.000000	  0.000000	  0.675100	  0.000000	 -0.339693	  0.000000	  0.000000	  0.000000
0.925500	202.724144	2505.298743	167.512543	  0.689147	  0.000000	 -0.339487	  0.000000	-45.996717	  0.000000	  0.000000	  0.000000	  0.000000	  0.672408	  0.000000	 -0.339659	  0.000000	  0.000000	  0.000000
0.926000	205.169277	2493.499338	161.826445	  0.685074	  0.000000	 -0.340183	  0.000000	-52.987044	  0.000000	  0.000000	  0.000000	  0.000000	  0.669716	  0.000000	 -0.339626	  0.000000	  0.000000	  0.000000
0.926500	208.154138	2480.447876	154.963792	  0.680902	  0.000000	 -0.340984	  0.000000	-59.741397	  0.000000	  0.000000	  0.000000	  0.000000	  0.667023	  0.000000	 -0.339593	  0.000000	  0.000000	  0.000000
0.927000	211.630671	2465.984007	147.547717	  0.676688	  0.000000	 -0.341778	  0.000000	-66.372228	  0.000000	  0.000000	  0.000000	  0.000000	  0.664331	  0.000000	 -0.339559	  0.000000	  0.000000	  0.000000
0.927500	215.549635	2450.064379	140.178840	  0.672499	  0.000000	 -0.342454	  0.000000	-72.995191	  0.000000	  0.000000	  0.000000	  0.000000	  0.661639	  0.000000	 -0.339526	  0.000000	  0.000000	  0.000000
0.928000	219.887767	2432.787010	133.378134	  0.668400	  0.000000	 -0.342913	  0.000000	-79.705988	  0.000000	  0.000000	  0.000000	  0.000000	  0.658946	  0.000000	 -0.339493	  0.000000	  0.000000	  0.000000
0.928500	224.663981	2414.396478	127.534039	  0.664455	  0.000000	 -0.343077	  0.000000	-86.553978	  0.000000	  0.000000	  0.000000	  0.000000	  0.656254	  0.000000	 -0.339459	  0.000000	  0.000000	  0.000000
0.929000	229.942785	2395.266160	122.856664	  0.660727	  0.000000	 -0.342900	  0.000000	-93.518499	  0.000000	  0.000000	  0.000000	  0.000000	  0.653562	  0.000000	 -0.339426	  0.000000	  0.000000	  0.000000
0.929500	235.825336	2375.862795	119.347585	  0.657281	  0.000000	 -0.342372	  0.000000	-100.497052	  0.000000	  0.000000	  0.000000	  0.000000	  0.650869	  0.000000	 -0.339392	  0.000000	  0.000000	  0.000000
0.930000	242.428731	2356.701824	116.794126	  0.654188	  0.000000	 -0.341528	  0.000000	-107.309551	  0.000000	  0.000000	  0.000000	  0.000000	  0.648177	  0.000000	 -0.339359	  0.000000	  0.000000	  0.000000
0.930500	249.854533	2338.304539	114.797626	  0.651521	  0.000000	 -0.340441	  0.000000	-113.717693	  0.000000	  0.000000	  0.000000	  0.000000	  0.645461	  0.000000	 -0.339400	  0.000000	  0.000000	  0.000000
0.931000	258.151275	2321.160361	112.834296	  0.649348	  0.000000	 -0.339217	  0.000000	-119.455356	  0.000000	  0.000000	  0.000000	  0.000000	  0.642746	  0.000000	 -0.339441	  0.000000	  0.000000	  0.000000
0.931500	267.279849	2305.690609	110.336093	  0.647717	  0.000000	 -0.337981	  0.000000	-124.262245	  0.000000	  0.000000	  0.000000	  0.000000	  0.640030	  0.000000	 -0.339482	  0.000000	  0.000000	  0.000000
0.932000	277.091535	2292.213432	106.775617	  0.646643	  0.000000	 -0.336854	  0.000000	-127.913870	  0.000000	  0.000000	  0.000000	  0.000000	  0.637315	  0.000000	 -0.339523	  0.000000	  0.000000	  0.000000
0.932500	287.329357	2280.913244	101.735065	  0.646099	  0.000000	 -0.335948	  0.000000	-130.241051	  0.000000	  0.000000	  0.000000	  0.000000	  0.634599	  0.000000	 -0.339564	  0.000000	  0.000000	  0.000000
